<?xml version="1.0" encoding="UTF-8"?> <svg xmlns="http://www.w3.org/2000/svg" width="192" height="48" viewBox="0 0 192 48" fill="none"><path d="M8.45783 6.41586C7.32045 6.35848 6.18337 6.53473 5.11736 6.93364C4.05135 7.33254 3.07921 7.94558 2.26145 8.73459C1.12955 9.98601 0.424949 11.5622 0.24876 13.237H5.02042C5.08982 12.3891 5.48678 11.601 6.12783 11.0384C6.76888 10.4758 7.60408 10.1826 8.45783 10.2204C9.10814 10.2201 9.75525 10.311 10.3801 10.4905C11.0133 10.6931 11.7143 10.9408 12.4606 11.2334L13.8401 7.58648C12.1598 6.79098 10.3183 6.39046 8.45783 6.41586ZM10.9907 20.1031C10.1703 20.3535 9.31578 20.475 8.45783 20.4633C6.19638 20.4633 5.08827 19.1351 4.86212 16.5012H0C0.316603 21.6789 3.00019 24.2678 8.05077 24.2678C9.03914 24.2922 10.0267 24.1939 10.9907 23.9751C11.7952 23.7744 12.5598 23.4395 13.2521 22.9846V18.9775C12.5498 19.4475 11.7898 19.8258 10.9907 20.1031Z" fill="white"></path><path d="M18.8833 16.5012V23.9527H23.6097V16.5012H18.8833ZM18.8833 0V13.1244H23.6097V0H18.8833Z" fill="white"></path><path d="M40.9778 16.5013C40.929 17.4508 40.658 18.3759 40.1863 19.2027C39.8899 19.638 39.4821 19.9865 39.0049 20.2121C38.5278 20.4378 37.9987 20.5323 37.4725 20.4859C36.9408 20.5316 36.4065 20.4346 35.9253 20.205C35.444 19.9753 35.0334 19.6215 34.7362 19.1802C34.256 18.3638 33.977 17.4457 33.9221 16.5013H29.1504C29.2293 17.7375 29.5521 18.9461 30.1002 20.0582C30.7408 21.3652 31.7559 22.454 33.0175 23.1873C34.3992 23.9481 35.9623 24.3215 37.5404 24.2679C38.6845 24.3334 39.8294 24.1544 40.8982 23.7428C41.967 23.3312 42.9348 22.6966 43.7368 21.8816C45.0659 20.3953 45.8266 18.4904 45.8851 16.5013H40.9778ZM44.8223 10.6032C44.1872 9.29817 43.1702 8.21513 41.905 7.49652C40.5636 6.75818 39.0502 6.38544 37.5178 6.41595C36.3806 6.33686 35.2394 6.49638 34.1681 6.88417C33.0968 7.27197 32.1193 7.8794 31.2988 8.66714C30.1975 9.88797 29.4886 11.409 29.2635 13.0344H34.103C34.2034 12.4505 34.4186 11.8921 34.7362 11.3911C35.0335 10.9582 35.4423 10.6128 35.9197 10.391C36.3971 10.1692 36.9256 10.0792 37.4499 10.1304C37.9766 10.0868 38.5057 10.18 38.9854 10.401C39.465 10.622 39.8788 10.9631 40.1863 11.3911C40.496 11.8938 40.7034 12.4521 40.7969 13.0344H45.6364C45.4828 12.1895 45.2087 11.3708 44.8223 10.6032Z" fill="white"></path><path d="M62.3932 16.5013C62.3342 17.4521 62.0556 18.3766 61.5791 19.2027C61.2662 19.6403 60.8469 19.9917 60.3604 20.224C59.8739 20.4563 59.3362 20.5619 58.7975 20.5309C58.3701 20.5882 57.9351 20.5308 57.5375 20.3646C57.1399 20.1983 56.7941 19.9293 56.536 19.5854C56.0432 18.7407 55.8148 17.7687 55.8802 16.794V16.5013H51.2216V18.0096C51.1065 19.7135 51.6667 21.3945 52.782 22.6921C53.3835 23.2573 54.0956 23.6929 54.8738 23.9718C55.652 24.2507 56.4796 24.3668 57.3049 24.3129C58.3955 24.3283 59.4762 24.1054 60.471 23.6601C61.3542 23.2583 62.1008 22.609 62.6193 21.7916H62.8681L63.5013 24.0428H67.1196V16.5013H62.3932ZM62.3932 6.75366V13.1245H67.1196V6.75366H62.3932ZM51.0859 6.75366V13.1245H55.8124V6.75366H51.0859Z" fill="white"></path><path d="M84.3753 16.5012C84.3858 17.5572 84.0787 18.5921 83.4933 19.4728C83.1639 19.8401 82.7538 20.1267 82.2948 20.3102C81.8359 20.4937 81.3405 20.5692 80.8474 20.5308C80.3497 20.5541 79.8545 20.448 79.4104 20.223C78.9663 19.998 78.5887 19.6619 78.3146 19.2477C77.8 18.4204 77.5116 17.4736 77.4779 16.5012H72.6836C72.731 18.4279 73.327 20.3015 74.4023 21.9041C74.9509 22.6405 75.6731 23.231 76.5053 23.6237C77.3375 24.0163 78.2541 24.1989 79.174 24.1553C80.1466 24.2132 81.1169 24.0071 81.9811 23.5591C82.8454 23.1111 83.5713 22.4379 84.0813 21.6114H84.2848L85.1894 23.8626H88.8078V16.5012H84.3753ZM84.0813 0V5.51541C84.0893 6.68739 84.2104 7.85588 84.4431 9.00476H84.2848C83.7484 8.18765 83.0076 7.52348 82.1354 7.07749C81.2631 6.6315 80.2893 6.41902 79.3097 6.46091C78.3727 6.41043 77.4375 6.58922 76.586 6.98166C75.7345 7.3741 74.9925 7.96823 74.4249 8.7121C73.5258 10.0001 72.9731 11.4959 72.8193 13.0569H77.6814C77.801 12.5067 78.0152 11.9812 78.3146 11.5036C78.5687 11.0882 78.9282 10.7467 79.3569 10.5135C79.7857 10.2804 80.2686 10.1637 80.757 10.1754C81.3109 10.1197 81.87 10.2064 82.3807 10.4271C82.8915 10.6478 83.3368 10.9952 83.6743 11.436C84.0054 11.9488 84.2286 12.5232 84.3301 13.1244H88.853V0H84.0813Z" fill="white"></path><path d="M101.132 6.41588C99.3538 6.31175 97.5862 6.75166 96.0664 7.67654C95.4848 8.07013 95.0149 8.60625 94.702 9.2332C94.389 9.86015 94.2436 10.5568 94.2798 11.2559C94.2635 11.8987 94.3631 12.5391 94.5738 13.1469H101.765C101.051 12.8701 100.362 12.5311 99.7073 12.1339C99.5095 12.0282 99.3428 11.8729 99.2238 11.6834C99.1048 11.4938 99.0376 11.2767 99.0289 11.0533C99.0289 10.3104 99.7299 9.92773 101.109 9.92773C101.878 9.92754 102.641 10.0491 103.371 10.2879C104.192 10.547 105 10.8476 105.791 11.1884L107.215 7.81162C105.318 6.89792 103.239 6.42089 101.132 6.41588ZM106.944 16.6363V16.5012H98.6671L98.9837 16.6363C99.9109 17.0415 100.657 17.3792 101.245 17.6718C101.675 17.8741 102.071 18.1397 102.421 18.4597C102.536 18.579 102.626 18.7203 102.684 18.8752C102.742 19.03 102.768 19.195 102.76 19.3602C102.76 20.3282 101.901 20.8235 100.182 20.8235C99.1894 20.807 98.2023 20.671 97.2423 20.4183C96.2246 20.1658 95.2328 19.8191 94.2798 19.3827V23.2548C95.0766 23.5996 95.9116 23.849 96.7674 23.9977C97.8263 24.1928 98.9019 24.2832 99.9787 24.2678C101.928 24.4012 103.869 23.9122 105.519 22.8721C106.134 22.4011 106.624 21.7879 106.948 21.0858C107.271 20.3836 107.417 19.6136 107.374 18.8424C107.396 18.0845 107.249 17.331 106.944 16.6363Z" fill="white"></path><path d="M119.857 20.5309C119.316 20.549 118.787 20.3733 118.365 20.0357C118.17 19.8471 118.018 19.6186 117.92 19.3659C117.823 19.1133 117.782 18.8425 117.799 18.5724V16.5013H113.073V18.5724C112.957 20.1008 113.416 21.6176 114.362 22.8272C114.904 23.3472 115.552 23.745 116.262 23.9936C116.973 24.2422 117.728 24.3358 118.478 24.2679C119.964 24.3079 121.443 24.0396 122.82 23.48V19.9907C121.864 20.3135 120.866 20.4955 119.857 20.5309ZM117.867 6.75367V3.08423H114.86L113.503 6.75367L110.812 8.28448V10.2655H113.073V13.1245H117.777V10.2655H122.616V6.75367H117.867Z" fill="white"></path><path d="M137.631 6.41587C136.569 6.41614 135.53 6.72946 134.646 7.31635C133.716 7.86798 132.939 8.6417 132.385 9.56754H132.159L131.548 6.75355H127.975V13.1244H133.131C133.306 12.6824 133.586 12.2887 133.945 11.9763C134.923 11.1426 136.189 10.7225 137.473 10.8057C137.938 10.8044 138.401 10.8573 138.853 10.9633L139.215 6.57346C138.694 6.46593 138.163 6.41312 137.631 6.41587ZM127.975 16.5012V23.9526H132.702V16.5012H127.975Z" fill="white"></path><path d="M146.294 0C144.598 0 143.738 0.765404 143.738 2.25119C143.738 3.73697 144.598 4.50238 146.294 4.50238C146.99 4.56035 147.681 4.34185 148.216 3.89456C148.431 3.67888 148.6 3.42209 148.713 3.13966C148.825 2.85722 148.88 2.555 148.872 2.25119C148.872 0.750396 148.012 0 146.294 0ZM144.032 16.5012V23.9527H148.736V16.5012H144.032ZM144.032 6.75357V13.1244H148.736V6.75357H144.032Z" fill="white"></path><path d="M166.782 16.5012H155.181V23.9527H159.908V18.5948L161.92 16.974L166.895 23.9527H172.346L166.782 16.5012ZM166.601 6.75357L161.762 11.9763L160.857 13.1244H166.059L171.871 6.75357H166.601ZM155.294 0V13.1244H159.817L159.975 10.6931V0H155.294Z" fill="white"></path><path d="M189.238 8.50954C187.593 7.11434 185.49 6.37074 183.329 6.42056C181.169 6.47039 179.102 7.31015 177.524 8.77968C176.449 10.0012 175.764 11.5138 175.557 13.1245H180.26C180.309 12.2408 180.642 11.3962 181.21 10.7157C181.498 10.4065 181.848 10.1621 182.238 9.99903C182.628 9.83594 183.049 9.75791 183.472 9.7702C183.894 9.76494 184.312 9.84616 184.701 10.0088C185.09 10.1715 185.442 10.4121 185.733 10.7157C186.309 11.3869 186.622 12.2421 186.615 13.1245H191.138C191.062 11.4134 190.39 9.78198 189.238 8.50954ZM180.193 16.5238C180.18 16.5983 180.18 16.6743 180.193 16.7489C180.211 17.8283 180.629 18.8629 181.369 19.6529C181.783 20.0437 182.274 20.3453 182.811 20.5389C183.348 20.7326 183.919 20.8141 184.489 20.7785C185.479 20.7839 186.466 20.6705 187.429 20.4408C188.437 20.2024 189.415 19.8551 190.347 19.4053V23.0522C189.504 23.4559 188.615 23.7582 187.701 23.9527C186.569 24.1772 185.417 24.2828 184.263 24.2679C183.082 24.3434 181.897 24.1832 180.778 23.7966C179.66 23.41 178.63 22.8048 177.75 22.0167C176.331 20.542 175.523 18.5883 175.489 16.5463H180.238L180.193 16.5238Z" fill="white"></path><path d="M108.392 47.7478L103.869 35.7939H104.977L108.098 43.9207C108.505 44.9563 108.799 45.8793 109.025 46.6447C109.319 45.6542 109.635 44.7312 109.952 43.8982L113.073 35.7939H114.203L109.681 47.7478H108.392Z" fill="white"></path><path d="M120.988 47.9732C120.231 48.0115 119.474 47.8887 118.769 47.6131C118.063 47.3375 117.424 46.9154 116.895 46.3748C115.861 45.1088 115.344 43.5011 115.448 41.8725C115.378 40.2554 115.874 38.6644 116.85 37.3701C117.308 36.8061 117.892 36.356 118.556 36.0552C119.219 35.7544 119.943 35.6111 120.672 35.6367C121.307 35.6101 121.94 35.7305 122.52 35.9883C123.101 36.2461 123.614 36.6343 124.019 37.1224C124.89 38.2633 125.323 39.6764 125.24 41.107V41.985H116.601C116.511 43.3329 116.912 44.6679 117.732 45.7445C118.143 46.189 118.649 46.5367 119.212 46.7625C119.775 46.9884 120.382 47.0866 120.988 47.0502C121.594 47.0561 122.199 47.011 122.797 46.9151C123.469 46.7584 124.127 46.5476 124.765 46.2848V47.2753C124.162 47.5426 123.533 47.7463 122.888 47.8831C122.259 47.9726 121.623 48.0028 120.988 47.9732ZM120.672 36.5371C120.152 36.5154 119.634 36.6069 119.153 36.8052C118.673 37.0036 118.242 37.3039 117.89 37.6852C117.124 38.6063 116.687 39.7544 116.646 40.9495H124.086C124.144 39.8001 123.827 38.6629 123.182 37.7077C122.89 37.3251 122.509 37.0187 122.072 36.8148C121.634 36.6109 121.154 36.5156 120.672 36.5371Z" fill="white"></path><path d="M136.908 47.7478V40.0037C136.985 39.065 136.72 38.1299 136.162 37.3698C135.843 37.0796 135.468 36.8578 135.059 36.7184C134.651 36.579 134.218 36.5248 133.787 36.5594C133.216 36.5091 132.641 36.5793 132.099 36.7655C131.558 36.9517 131.062 37.2497 130.644 37.6399C129.883 38.6459 129.528 39.8986 129.649 41.1518V47.7478H128.541V35.794H129.468L129.694 37.4373C130.159 36.7865 130.789 36.2705 131.52 35.9422C132.251 35.6138 133.057 35.485 133.855 35.5688C136.569 35.5688 137.926 37.0321 137.926 39.9361V47.7478H136.908Z" fill="white"></path><path d="M145.049 47.0048C145.657 47.011 146.264 46.9506 146.859 46.8247V47.7026C146.267 47.8935 145.648 47.9848 145.027 47.9728C144.611 47.998 144.194 47.9348 143.804 47.7873C143.414 47.6398 143.06 47.4114 142.765 47.1173C142.186 46.3581 141.911 45.4108 141.997 44.4609V36.7393H140.21V36.019L141.974 35.5237L142.539 32.8223H143.082V35.7938H146.61V36.7393H143.037V44.3033C142.991 45.0205 143.164 45.7348 143.534 46.3519C143.715 46.574 143.948 46.7494 144.212 46.863C144.475 46.9767 144.763 47.0253 145.049 47.0048Z" fill="white"></path><path d="M150.408 35.7939V43.538C150.322 44.4811 150.597 45.4217 151.177 46.1719C151.48 46.4523 151.836 46.6687 152.225 46.808C152.613 46.9473 153.026 47.0066 153.439 46.9824C154.013 47.0302 154.591 46.9589 155.136 46.7729C155.681 46.5869 156.181 46.2903 156.605 45.9018C157.355 44.8911 157.709 43.6422 157.6 42.3899V35.7939H158.685V47.7478H157.849L157.645 46.1044C157.178 46.7587 156.544 47.277 155.809 47.6055C155.073 47.9341 154.263 48.0609 153.461 47.9729C150.748 47.9729 149.368 46.5096 149.368 43.6056V35.7939H150.408Z" fill="white"></path><path d="M167.528 35.569C168.075 35.5699 168.62 35.6226 169.156 35.7266L168.953 36.7621C168.441 36.6441 167.918 36.5837 167.392 36.582C166.898 36.5757 166.41 36.6918 165.972 36.9197C165.534 37.1476 165.159 37.4802 164.882 37.8877C164.196 38.8358 163.846 39.9841 163.887 41.1519V47.7479H162.824V35.7941H163.751V38.0453C164.122 37.3119 164.665 36.6785 165.334 36.1993C165.98 35.7634 166.748 35.5427 167.528 35.569Z" fill="white"></path><path d="M176.394 47.9729C175.64 48.0138 174.886 47.8922 174.183 47.6164C173.481 47.3405 172.846 46.9169 172.323 46.3746C171.281 45.1119 170.756 43.5038 170.853 41.8722C170.781 40.2512 171.285 38.6567 172.278 37.3698C172.732 36.8063 173.312 36.3561 173.971 36.0552C174.631 35.7543 175.352 35.6108 176.077 35.6364C176.713 35.6064 177.347 35.7251 177.928 35.9832C178.509 36.2412 179.022 36.6313 179.424 37.1222C180.295 38.263 180.729 39.6761 180.645 41.1068V41.9847H172.052C171.978 43.3342 172.387 44.6661 173.205 45.7442C173.611 46.1895 174.113 46.538 174.673 46.7641C175.232 46.9901 175.836 47.0878 176.439 47.0499C177.045 47.0568 177.65 47.0116 178.248 46.9149C178.92 46.7582 179.578 46.5474 180.216 46.2845V47.275C179.616 47.5486 178.986 47.7525 178.339 47.8829C177.695 47.9773 177.044 48.0074 176.394 47.9729ZM176.077 36.5369C175.558 36.5152 175.039 36.6067 174.559 36.805C174.079 37.0033 173.647 37.3036 173.296 37.685C172.529 38.6037 172.098 39.7548 172.075 40.9492H179.492C179.561 39.7985 179.243 38.6577 178.587 37.7075C178.3 37.3312 177.926 37.0287 177.497 36.8251C177.069 36.6215 176.597 36.5227 176.122 36.5369H176.077Z" fill="white"></path><path d="M191.455 44.6412C191.478 45.123 191.378 45.6027 191.164 46.0356C190.951 46.4686 190.631 46.8408 190.234 47.1175C189.186 47.7446 187.972 48.0427 186.751 47.9729C185.439 48.0464 184.129 47.8071 182.929 47.2751V46.1044C184.113 46.703 185.423 47.0117 186.751 47.0049C187.685 47.0587 188.616 46.8562 189.442 46.4196C189.725 46.2649 189.961 46.0367 190.124 45.7592C190.288 45.4817 190.372 45.1653 190.369 44.8438C190.37 44.5545 190.305 44.2689 190.179 44.0079C190.054 43.7469 189.872 43.5171 189.646 43.3355C188.907 42.8076 188.091 42.3975 187.226 42.1198C186.351 41.8264 185.503 41.4573 184.693 41.0167C184.263 40.7414 183.893 40.3813 183.608 39.9587C183.346 39.5238 183.213 39.0246 183.223 38.5179C183.214 38.0984 183.313 37.6836 183.511 37.3131C183.709 36.9426 183.999 36.6289 184.354 36.4018C185.306 35.83 186.409 35.5556 187.52 35.6139C188.784 35.6115 190.037 35.8563 191.206 36.3343L190.799 37.3248C189.763 36.8773 188.649 36.6327 187.52 36.6044C186.736 36.5714 185.956 36.742 185.258 37.0997C185.004 37.2182 184.789 37.4057 184.637 37.6407C184.485 37.8756 184.402 38.1484 184.399 38.4279C184.388 38.7142 184.444 38.9992 184.562 39.2608C184.679 39.5223 184.856 39.7534 185.078 39.9362C185.874 40.4823 186.751 40.9002 187.678 41.1743C188.505 41.4428 189.301 41.7975 190.053 42.2324C190.495 42.501 190.873 42.862 191.161 43.2905C191.38 43.7058 191.482 44.1727 191.455 44.6412Z" fill="white"></path></svg> 